<svg width="70" height="58" viewBox="0 0 70 58" fill="none" xmlns="http://www.w3.org/2000/svg">
<path opacity="0.12" fill-rule="evenodd" clip-rule="evenodd" d="M4.58067 7.87707L0.049787 15.7541L0.92908 17.4072L1.80834 19.0602H12.7571C18.7789 19.0602 23.7058 19.0678 23.7058 19.0771C23.7058 19.1247 17.1406 30.5267 17.1236 30.5085C17.1128 30.4968 16.1842 28.8722 15.0603 26.8982L13.0167 23.3093H8.67586C6.28839 23.3093 4.33497 23.3151 4.33497 23.3221C4.33497 23.3292 6.71014 27.4709 9.61308 32.5259L14.8912 41.7169L17.213 41.7247L19.5347 41.7324L26.6948 29.205C30.6329 22.315 34.5529 15.4771 35.406 14.0097C36.2591 12.5423 36.9642 11.3234 36.9727 11.3009C36.9858 11.2668 34.8964 11.2601 24.1792 11.2601H11.3701L12.3984 9.53009L13.4269 7.8001L26.2528 7.7991L39.0788 7.7981L41.2664 3.92855C42.4695 1.80034 43.4584 0.0457383 43.4639 0.0295311C43.4704 0.0104102 37.4099 0 26.2928 0H9.11152L4.58067 7.87707ZM36.4991 20.8269C29.9026 32.2808 24.501 41.6702 24.4957 41.6921C24.4876 41.7251 26.3644 41.7318 35.2372 41.7307L45.9884 41.7292L48.2363 37.8606C49.4726 35.7329 50.4886 33.9785 50.4942 33.962C50.5007 33.9424 48.3085 33.9295 44.1374 33.9244L37.7706 33.9168L45.2588 20.8739L52.7471 7.83106L59.1136 7.83076L65.4802 7.83046L67.7279 3.95626C68.9642 1.82544 69.9865 0.0635845 69.9998 0.041034C70.0201 0.00658609 68.295 0.000121403 59.2583 0.000789116L48.4927 0.00157823L36.4991 20.8269ZM26.0895 46.8022C25.3541 46.8825 24.5922 47.1067 23.9846 47.4216C22.5078 48.187 21.614 49.5118 21.332 51.3532C21.2579 51.8374 21.2582 52.9566 21.3326 53.4474C21.5792 55.0747 22.2912 56.2802 23.4732 57.072C24.1236 57.5077 24.8161 57.7733 25.6977 57.9254C26.0824 57.9917 27.1196 58.0177 27.583 57.9725C29.7717 57.7591 31.4589 56.5735 32.035 54.8439C32.1319 54.5528 32.2447 54.0298 32.2447 53.8713V53.7813H30.995H29.7452L29.6938 53.9406C29.5717 54.3194 29.3267 54.6866 29.0313 54.9336C28.2352 55.5997 26.3455 55.7372 25.2281 55.2105C24.4194 54.8293 23.9403 54.1882 23.7509 53.2341C23.6843 52.8987 23.6611 52.2415 23.703 51.8798C23.873 50.4146 24.6792 49.5489 26.101 49.305C26.4142 49.2513 27.2175 49.2435 27.5989 49.2906C28.4383 49.3941 29.054 49.7181 29.3999 50.2384C29.5354 50.4421 29.7404 50.8745 29.7404 50.9565C29.7404 50.9791 30.1249 50.989 30.9969 50.989H32.2534L32.2343 50.7823C32.2068 50.4844 32.0746 49.9841 31.941 49.6721C31.3098 48.1979 29.8827 47.1854 27.9753 46.8581C27.5586 46.7867 26.5155 46.7557 26.0895 46.8022ZM4.3048 46.832C2.85485 46.9254 1.71683 47.3724 1.01598 48.1237C0.658974 48.5064 0.43811 48.9102 0.303449 49.4262C0.195793 49.8387 0.187525 50.5022 0.285044 50.9009C0.470213 51.658 0.872355 52.13 1.67908 52.5369C2.40474 52.9029 3.29118 53.1242 5.25524 53.4297C6.93363 53.6908 7.38821 53.8146 7.65548 54.0834C7.76329 54.1918 7.80489 54.262 7.83416 54.3848C7.91146 54.7089 7.80426 55.0527 7.5506 55.294C7.31344 55.5196 7.02212 55.6447 6.50656 55.7422C6.15421 55.8088 4.95581 55.8345 4.50759 55.7851C3.55245 55.6797 2.94917 55.362 2.66262 54.8135C2.54431 54.587 2.46565 54.2821 2.46478 54.0468L2.46427 53.9027L1.21964 53.9062C0.535115 53.9081 -0.000420402 53.9161 0.0296316 53.9239C0.0802614 53.9371 0.0837614 53.9815 0.0777269 54.535C0.0712398 55.1315 0.0713001 55.132 0.16559 55.4118C0.217487 55.5657 0.302936 55.7774 0.355467 55.8822C0.970688 57.1096 2.31597 57.803 4.40959 57.9719C5.06959 58.0251 6.59563 57.9919 7.19001 57.9114C9.12021 57.6499 10.077 56.9118 10.3561 55.4691C10.4229 55.1234 10.4465 54.4547 10.4024 54.1517C10.2092 52.8227 9.17721 52.0642 6.92983 51.5995C6.6892 51.5497 6.03068 51.4324 5.46645 51.3387C4.90222 51.245 4.28444 51.1335 4.09359 51.0909C3.01902 50.8514 2.67433 50.6102 2.71307 50.1249C2.76008 49.5358 3.33399 49.1561 4.34134 49.0478C5.21394 48.9538 6.09229 49.0717 6.63486 49.3553C6.92334 49.5062 7.2018 49.7676 7.33028 50.0084C7.43268 50.2002 7.53328 50.5833 7.53328 50.7814V50.9283H8.80515H10.077L10.0583 50.602C9.96574 48.9895 9.11692 47.8191 7.61764 47.2367C6.74942 46.8994 5.5443 46.7522 4.3048 46.832ZM33.8439 52.4762V58H38.3698H42.8957V56.9074V55.8148H39.5767H36.2577V51.3836V46.9524H35.0508H33.8439V52.4762ZM43.8687 50.5717C43.8784 54.1325 43.8796 54.1969 43.9441 54.5552C44.2276 56.1307 44.9607 57.0831 46.2901 57.6032C46.9436 57.8588 47.5805 57.9678 48.5586 57.9913C50.1239 58.0289 51.1864 57.7877 52.0743 57.1931C52.836 56.6831 53.3417 55.9287 53.5891 54.9338C53.7698 54.2071 53.7674 54.2631 53.7799 50.4503L53.7913 46.9524H52.5395H51.2877L51.2741 50.2682C51.2601 53.6856 51.2588 53.7202 51.1318 54.216C50.8689 55.242 50.0697 55.7815 48.8095 55.7837C48.2291 55.7848 47.6574 55.6679 47.2866 55.4724C47.1859 55.4193 47.0092 55.2813 46.8906 55.1631C46.5551 54.829 46.3815 54.3981 46.3071 53.7142C46.2865 53.5247 46.275 52.2647 46.275 50.1859V46.9524H45.067H43.8589L43.8687 50.5717ZM55.6286 52.4762V58H59.185C63.0002 58 62.9877 58.0005 63.4713 57.8454C64.4423 57.5342 65.0939 56.8335 65.3449 55.8308C65.4908 55.2477 65.491 54.4363 65.3453 53.8571C65.1781 53.1927 64.7642 52.6904 64.1603 52.4192L63.9744 52.3357L64.1103 52.2416C64.4902 51.9787 64.7662 51.5554 64.898 51.0333C64.9596 50.7897 64.9666 50.6918 64.9651 50.0937C64.9636 49.4683 64.9584 49.4067 64.8827 49.1224C64.6008 48.0631 63.9068 47.419 62.7192 47.1148C62.1162 46.9603 61.9185 46.9524 58.6536 46.9524H55.6286V52.4762ZM61.6933 49.2415C62.1538 49.3487 62.364 49.4913 62.5144 49.7989C62.6077 49.9895 62.6135 50.0203 62.6127 50.3207C62.6119 50.5981 62.6017 50.6619 62.5347 50.8071C62.4003 51.0985 62.1741 51.2677 61.7768 51.3738C61.6134 51.4175 61.3469 51.4259 59.815 51.4363L58.0424 51.4482V50.3059V49.1635L59.7547 49.1762C61.2426 49.1872 61.4966 49.1958 61.6933 49.2415ZM13.754 51.5884C13.4195 52.1684 12.5354 53.7328 12.5214 53.7694C12.5078 53.8052 12.8927 53.8116 15.0689 53.8116H17.6325L18.3157 52.614C18.6915 51.9553 18.9989 51.409 18.9989 51.4C18.9989 51.391 17.8454 51.3836 16.4356 51.3836H13.8722L13.754 51.5884ZM62.0828 53.4491C62.7823 53.5632 63.0799 53.9035 63.0809 54.59C63.0816 55.0584 62.9238 55.3757 62.6028 55.5515C62.2108 55.7661 61.9938 55.7844 59.846 55.7844H58.0424V54.6007V53.4171L59.9659 53.4173C61.1525 53.4174 61.9635 53.4296 62.0828 53.4491ZM2.006e-06 54.4035C0.000152869 54.5203 0.00558397 54.5644 0.0121314 54.5014C0.0186487 54.4384 0.0185582 54.3428 0.0118901 54.289C0.00522191 54.2351 -0.000118685 54.2866 2.006e-06 54.4035ZM0.0272782 54.7525C0.0272782 54.8109 0.0334937 54.8348 0.0410671 54.8056C0.0486706 54.7764 0.0486706 54.7286 0.0410671 54.6994C0.0334937 54.6701 0.0272782 54.6941 0.0272782 54.7525Z" fill="black"/>
</svg>
